<?xml version="1.0" standalone="no"?>
<!DOCTYPE svg PUBLIC "-//W3C//DTD SVG 20010904//EN"
 "http://www.w3.org/TR/2001/REC-SVG-20010904/DTD/svg10.dtd">
<svg version="1.0" xmlns="http://www.w3.org/2000/svg"
 width="415.000000pt" height="415.000000pt" viewBox="0 0 415.000000 415.000000"
 preserveAspectRatio="xMidYMid meet">
<metadata>
Created by potrace 1.14, written by Peter Selinger 2001-2017
</metadata>
<g transform="translate(0.000000,415.000000) scale(0.100000,-0.100000)"
fill="#000000" stroke="none">
<path d="M1935 4119 c-38 -4 -85 -11 -103 -14 -38 -7 -37 5 -12 -150 11 -73
12 -77 36 -215 18 -101 20 -116 33 -199 6 -35 13 -66 16 -69 3 -3 38 -7 78 -8
195 -7 290 -129 331 -424 6 -41 46 -273 51 -298 3 -13 9 -20 14 -18 5 3 26 8
47 11 22 3 62 10 89 16 74 14 211 40 285 53 14 2 88 16 165 31 77 15 151 28
165 30 19 2 25 8 24 26 -2 25 -14 110 -20 144 -2 11 -13 72 -24 135 -11 63
-22 129 -25 145 -13 73 -60 217 -94 291 -126 268 -304 419 -577 490 -81 21
-127 26 -254 28 -85 2 -186 -1 -225 -5z"/>
<path d="M1534 4035 c-388 -115 -645 -318 -752 -595 -79 -205 -86 -393 -27
-743 15 -83 28 -165 31 -182 3 -16 11 -64 19 -106 8 -42 17 -98 20 -125 4 -27
8 -56 11 -65 3 -9 7 -34 10 -55 2 -22 6 -46 9 -54 2 -8 7 -35 10 -60 3 -25 8
-52 10 -60 2 -8 7 -33 10 -55 3 -23 7 -52 10 -65 3 -13 7 -42 10 -65 4 -22 15
-92 27 -155 11 -63 21 -124 23 -135 1 -11 5 -36 9 -55 9 -54 16 -92 22 -130 2
-19 9 -57 14 -85 5 -27 12 -68 15 -90 3 -22 7 -47 10 -55 2 -8 6 -32 9 -52 15
-97 19 -120 42 -217 26 -112 77 -249 127 -340 16 -31 33 -58 36 -61 3 -3 20
-25 36 -49 124 -183 347 -311 606 -348 58 -9 308 -9 374 -1 22 3 46 6 52 7 13
1 12 16 -7 111 -5 25 -11 59 -14 75 -17 130 -70 422 -76 429 -5 5 -27 10 -50
12 -129 10 -225 75 -275 186 -23 52 -43 150 -111 556 -46 271 -85 507 -88 525
-5 31 -33 197 -42 247 -4 23 -38 234 -50 305 -3 17 -7 37 -9 45 -3 8 -7 38
-10 65 -3 28 -10 66 -15 85 -5 19 -12 57 -15 84 -3 27 -8 59 -10 70 -24 108
-37 226 -32 294 10 129 71 218 189 278 29 14 54 27 55 29 2 1 -1 26 -7 56 -5
30 -12 70 -15 89 -4 19 -13 73 -21 120 -8 47 -16 96 -19 110 -2 14 -9 54 -15
90 -16 93 -22 133 -23 148 -1 17 -19 15 -113 -13z"/>
<path d="M3210 1779 c-47 -10 -101 -20 -120 -23 -44 -7 -75 -13 -170 -31 -41
-8 -88 -17 -105 -20 -16 -2 -39 -7 -50 -9 -11 -2 -64 -12 -118 -22 l-99 -18 6
-40 c3 -23 10 -66 15 -96 6 -30 12 -68 15 -85 2 -16 16 -102 31 -190 15 -88
28 -178 28 -200 2 -104 -28 -187 -89 -247 -38 -39 -141 -98 -169 -98 -17 0
-17 -18 0 -108 1 -10 6 -42 11 -72 4 -30 8 -57 9 -60 2 -9 17 -94 21 -125 2
-16 11 -66 19 -110 23 -127 23 -129 24 -143 1 -16 21 -12 151 25 234 66 407
161 547 298 205 202 292 478 261 830 -8 101 -6 86 -47 330 -17 99 -32 191 -34
205 -5 31 -23 32 -137 9z"/>
</g>
</svg>
