<?xml version="1.0" standalone="no"?>
<!DOCTYPE svg PUBLIC "-//W3C//DTD SVG 20010904//EN"
 "http://www.w3.org/TR/2001/REC-SVG-20010904/DTD/svg10.dtd">
<svg version="1.0" xmlns="http://www.w3.org/2000/svg"
 width="512.000000pt" height="512.000000pt" viewBox="0 0 512.000000 512.000000"
 preserveAspectRatio="xMidYMid meet">
<metadata>
Created by potrace 1.11, written by Peter Selinger 2001-2013
</metadata>
<g transform="translate(0.000000,512.000000) scale(0.100000,-0.100000)"
fill="#000000" stroke="none">
<path d="M2528 5115 c-2 -1 -43 -5 -93 -9 -49 -3 -99 -8 -110 -10 -11 -2 -42
-7 -70 -10 -27 -4 -51 -9 -53 -11 -2 -2 8 -68 22 -147 33 -186 35 -197 42
-237 6 -38 11 -64 19 -101 3 -14 7 -41 10 -60 2 -19 11 -73 20 -120 9 -47 17
-93 18 -102 1 -16 12 -18 82 -18 172 0 292 -65 368 -200 26 -47 61 -149 71
-210 3 -19 8 -46 11 -60 3 -13 7 -42 11 -64 3 -22 7 -43 9 -46 2 -3 6 -30 10
-60 4 -30 8 -57 10 -60 2 -3 6 -30 10 -60 4 -30 8 -57 10 -60 2 -3 6 -26 10
-50 4 -25 8 -46 10 -48 2 -2 70 7 155 22 14 3 53 10 87 16 35 6 75 13 90 16
16 2 51 9 78 14 28 5 64 11 80 14 17 2 53 9 80 14 28 6 70 13 95 17 25 3 63
10 85 15 22 5 60 12 85 15 73 11 193 34 198 39 2 3 -12 99 -33 213 -20 114
-39 222 -42 238 -34 225 -148 514 -262 665 -175 232 -437 384 -732 424 -25 4
-59 9 -75 12 -29 5 -301 13 -306 9z"/>
<path d="M1830 4991 c-311 -94 -530 -210 -705 -373 -176 -164 -290 -382 -321
-612 -3 -22 -7 -43 -10 -48 -6 -9 -6 -277 0 -328 4 -40 26 -185 32 -215 5 -23
7 -36 28 -160 9 -49 18 -101 21 -115 3 -14 12 -65 21 -115 8 -49 17 -101 19
-115 3 -14 21 -115 40 -225 19 -110 37 -211 40 -225 3 -14 7 -38 10 -55 3 -16
7 -43 10 -60 3 -16 8 -48 11 -70 3 -22 7 -46 10 -54 3 -8 7 -30 10 -50 3 -20
12 -74 21 -121 8 -47 17 -96 19 -110 3 -14 13 -72 24 -130 10 -58 30 -172 44
-255 15 -82 28 -161 31 -175 2 -14 14 -79 25 -145 82 -463 240 -771 500 -976
145 -114 381 -208 590 -235 123 -16 559 -8 578 10 2 2 -6 60 -18 128 -12 67
-26 148 -31 178 -5 30 -11 66 -14 80 -3 14 -15 79 -26 145 -12 66 -22 127 -24
135 -2 8 -7 36 -11 63 l-7 47 -46 1 c-126 2 -254 55 -319 131 -76 89 -101 159
-137 378 -3 19 -8 42 -10 50 -2 8 -6 33 -10 55 -5 36 -19 119 -29 170 -2 11
-11 63 -20 115 -9 52 -18 104 -20 115 -2 11 -8 49 -15 85 -6 36 -23 128 -37
205 -14 77 -27 151 -29 165 -2 14 -6 41 -10 60 -16 91 -37 210 -46 260 -8 52
-12 70 -24 130 -2 14 -6 36 -9 50 -10 65 -19 117 -22 135 -3 11 -7 35 -10 54
-3 18 -8 43 -10 55 -2 11 -7 37 -10 56 -2 19 -9 55 -14 80 -5 25 -14 79 -20
120 -7 41 -15 91 -20 110 -5 19 -11 53 -15 75 -3 22 -15 92 -26 155 -36 200
-30 312 22 415 40 77 143 161 242 196 40 14 39 8 22 104 -19 102 -26 144 -31
174 -3 18 -8 43 -10 55 -2 11 -13 73 -24 136 -11 63 -22 129 -25 145 -3 17
-10 53 -15 80 -6 28 -11 62 -12 78 -3 36 -22 35 -178 -12z"/>
<path d="M4167 2219 c-41 -10 -225 -42 -357 -64 -25 -4 -54 -9 -65 -11 -11 -2
-45 -8 -75 -14 -30 -6 -66 -12 -80 -15 -13 -3 -42 -7 -65 -10 -22 -4 -71 -12
-110 -20 -38 -7 -104 -19 -145 -26 -41 -7 -78 -15 -83 -19 -4 -3 -3 -31 3 -61
5 -29 12 -70 15 -89 5 -28 29 -167 49 -275 9 -51 16 -93 22 -130 3 -22 11 -69
18 -105 33 -177 -10 -325 -124 -422 -44 -38 -147 -92 -197 -102 -18 -4 -30
-12 -28 -19 2 -7 6 -28 9 -47 5 -34 52 -300 61 -350 3 -14 8 -41 10 -60 3 -19
10 -55 15 -80 5 -25 12 -63 15 -85 3 -22 7 -51 10 -65 3 -14 7 -36 10 -49 6
-34 8 -35 67 -21 588 132 963 400 1119 800 25 66 24 62 51 175 18 77 21 122
21 305 1 208 -7 282 -47 476 -2 12 -7 37 -10 55 -3 19 -14 84 -25 144 -11 61
-23 126 -26 145 -8 45 -13 49 -58 39z"/>
</g>
</svg>
